<svg id="Layer_1" enable-background="new 0 0 512 512" height="512" viewBox="0 0 512 512" width="512" xmlns="http://www.w3.org/2000/svg"><g><path d="m95.333 385.603c-36.025 0-65.333-29.308-65.333-65.333 0-34.905 27.514-63.504 61.992-65.249l23.873-27.851c-6.616-1.458-13.485-2.234-20.532-2.234-52.567 0-95.333 42.767-95.333 95.334s42.766 95.333 95.333 95.333c36.302 0 67.927-20.399 84.024-50.333h-36.726c-11.91 12.511-28.702 20.333-47.298 20.333z"/><path d="m402.82 326.041c3.19 7.65 11.97 11.26 19.62 8.08 7.64-3.19 11.26-11.97 8.07-19.62l-74.12-177.9 32.89-10.97c7.86-2.62 12.1-11.11 9.48-18.97s-11.11-12.11-18.97-9.49l-48.201 16.067c-8.268 2.756-12.455 11.954-9.103 19.999l9.425 22.621-131.471 34.183-13.504-31.504h20.864c8.284 0 15-6.716 15-15s-6.716-15-15-15h-64.267c-8.284 0-15 6.716-15 15s6.716 15 15 15h10.763l19.972 46.594-90.323 105.377c-3.813 4.448-4.687 10.708-2.239 16.03s7.77 8.732 13.628 8.732h144.6c4.792 0 9.296-2.29 12.12-6.163l96.756-132.694zm-274.873-20.771 59.492-69.408 29.746 69.408zm115.392-15.131-30.946-72.209 103.155-26.821z"/><path d="m425.88 225.383 14.113 33.874c24.536 9.413 42.007 33.204 42.007 61.013 0 36.025-29.309 65.333-65.333 65.333s-65.333-29.309-65.333-65.333c0-9.388 2.006-18.312 5.587-26.388l-14.098-33.836c-13.424 16.43-21.489 37.402-21.489 60.224 0 52.567 42.766 95.333 95.333 95.333s95.333-42.766 95.333-95.333c0-49.459-37.86-90.237-86.12-94.887z"/></g></svg>