<svg xmlns="http://www.w3.org/2000/svg" height="575pt" version="1.1" viewBox="1 -135 575.95902 575" width="575pt">
<g id="surface1">
<path d="M 9.601562 248.636719 L 39.167969 248.636719 C 44.4375 285.328125 78.453125 310.800781 115.140625 305.53125 C 144.628906 301.292969 167.796875 278.125 172.03125 248.636719 L 403.96875 248.636719 C 409.179688 285.335938 443.152344 310.859375 479.851562 305.648438 C 511.433594 301.164062 535.496094 275.066406 537.40625 243.222656 L 573.207031 207.425781 C 575 205.621094 576.003906 203.179688 576 200.636719 L 576 114.238281 C 576 112.058594 575.257812 109.941406 573.898438 108.238281 L 539.335938 65.039062 L 555.839844 32.128906 C 558.207031 27.382812 556.28125 21.621094 551.535156 19.253906 C 550.507812 18.738281 549.398438 18.414062 548.257812 18.296875 L 495.886719 12.773438 L 402.085938 2.878906 C 340.53125 -3.945312 278.230469 3.902344 220.292969 25.78125 C 186.925781 39.519531 155.851562 58.257812 128.132812 81.359375 L 109.777344 96.660156 L 96.679688 103.800781 L 36.144531 127.320312 C 35.757812 127.46875 35.382812 127.640625 35.019531 127.839844 C 13.433594 139.617188 0 162.242188 0 186.832031 L 0 239.039062 C 0 244.339844 4.296875 248.636719 9.601562 248.636719 Z M 105.601562 287.039062 C 79.089844 287.039062 57.601562 265.546875 57.601562 239.039062 C 57.601562 212.527344 79.089844 191.039062 105.601562 191.039062 C 132.109375 191.039062 153.601562 212.527344 153.601562 239.039062 C 153.570312 265.535156 132.097656 287.007812 105.601562 287.039062 Z M 470.402344 287.039062 C 443.890625 287.039062 422.398438 265.546875 422.398438 239.039062 C 422.398438 212.527344 443.890625 191.039062 470.402344 191.039062 C 496.910156 191.039062 518.402344 212.527344 518.402344 239.039062 C 518.367188 265.535156 496.898438 287.007812 470.402344 287.039062 Z M 556.800781 152.636719 L 525.898438 152.636719 L 521.097656 133.4375 L 556.800781 133.4375 Z M 499.910156 32.503906 L 532.414062 35.929688 L 519.40625 61.945312 C 517.734375 65.296875 518.160156 69.3125 520.503906 72.238281 L 554.101562 114.238281 L 508.800781 114.238281 C 503.496094 114.238281 499.203125 118.539062 499.203125 123.839844 C 499.203125 124.621094 499.296875 125.402344 499.488281 126.160156 L 509.085938 164.558594 C 510.152344 168.835938 513.992188 171.835938 518.398438 171.835938 L 556.796875 171.835938 L 556.796875 196.660156 L 534.527344 218.925781 C 534.527344 218.828125 534.441406 218.734375 534.414062 218.636719 C 533.464844 215.734375 532.320312 212.902344 530.984375 210.160156 C 530.695312 209.566406 530.429688 208.960938 530.121094 208.363281 C 528.738281 205.6875 527.179688 203.105469 525.457031 200.636719 C 525.109375 200.136719 524.726562 199.675781 524.371094 199.1875 C 522.703125 196.917969 520.890625 194.761719 518.945312 192.726562 C 518.6875 192.449219 518.445312 192.140625 518.167969 191.871094 C 516.023438 189.722656 513.738281 187.71875 511.324219 185.871094 C 510.765625 185.449219 510.21875 185.035156 509.664062 184.632812 C 507.195312 182.832031 504.609375 181.199219 501.925781 179.746094 C 501.570312 179.554688 501.1875 179.402344 500.820312 179.21875 C 498.265625 177.921875 495.628906 176.789062 492.929688 175.832031 C 492.390625 175.636719 491.875 175.417969 491.335938 175.234375 C 488.367188 174.273438 485.335938 173.515625 482.261719 172.96875 C 481.609375 172.855469 480.949219 172.769531 480.34375 172.671875 C 477.054688 172.144531 473.730469 171.863281 470.398438 171.835938 C 468.179688 171.835938 465.980469 171.960938 463.820312 172.171875 C 463.101562 172.238281 462.398438 172.375 461.691406 172.472656 C 460.25 172.652344 458.808594 172.84375 457.417969 173.125 C 456.582031 173.289062 455.777344 173.507812 454.949219 173.699219 C 453.703125 174 452.453125 174.296875 451.226562 174.660156 C 450.371094 174.910156 449.546875 175.207031 448.710938 175.496094 C 447.546875 175.898438 446.386719 176.300781 445.253906 176.761719 C 444.429688 177.097656 443.613281 177.464844 442.796875 177.835938 C 441.703125 178.328125 440.628906 178.796875 439.5625 179.394531 C 438.765625 179.816406 437.976562 180.238281 437.199219 180.6875 C 436.164062 181.273438 435.15625 181.898438 434.15625 182.542969 C 433.398438 183.023438 432.660156 183.503906 431.929688 184.019531 C 430.96875 184.710938 430.011719 185.429688 429.050781 186.171875 C 428.359375 186.707031 427.667969 187.234375 427.003906 187.800781 C 426.042969 188.597656 425.171875 189.445312 424.277344 190.289062 C 423.664062 190.855469 423.050781 191.410156 422.464844 192.007812 C 421.503906 192.964844 420.679688 193.925781 419.804688 194.886719 C 419.316406 195.453125 418.84375 195.992188 418.335938 196.566406 C 417.316406 197.816406 416.367188 199.109375 415.457031 200.40625 C 415.195312 200.792969 414.898438 201.136719 414.640625 201.519531 C 413.488281 203.230469 412.414062 204.992188 411.421875 206.8125 C 411.136719 207.328125 410.90625 207.875 410.636719 208.40625 C 409.953125 209.730469 409.28125 211.0625 408.714844 212.4375 C 408.410156 213.167969 408.148438 213.914062 407.851562 214.664062 C 407.382812 215.875 406.890625 217.082031 406.507812 218.332031 C 406.238281 219.15625 406.019531 220.011719 405.789062 220.855469 C 405.453125 222.058594 405.125 223.246094 404.828125 224.464844 C 404.625 225.367188 404.472656 226.269531 404.308594 227.191406 C 404.175781 227.921875 403.992188 228.632812 403.886719 229.371094 L 300.296875 229.371094 L 305.097656 210.171875 L 374.402344 210.171875 L 374.402344 191.039062 L 309.898438 191.039062 L 329.980469 110.695312 L 451.679688 104.636719 C 454.875 104.476562 457.78125 102.734375 459.429688 99.992188 Z M 352.648438 20.023438 C 354.894531 20.023438 357.128906 19.878906 359.367188 19.878906 C 372.964844 19.867188 386.550781 20.566406 400.070312 21.980469 L 478.859375 30.296875 L 445.605469 85.707031 L 334.847656 91.199219 Z M 140.417969 96.113281 C 166.636719 74.261719 196.035156 56.53125 227.597656 43.542969 C 261.191406 30.460938 296.652344 22.800781 332.652344 20.847656 L 314.8125 92.226562 L 134.332031 101.230469 Z M 19.199219 186.832031 C 19.179688 169.46875 28.550781 153.449219 43.699219 144.957031 L 102.722656 122.023438 L 309.898438 111.695312 L 290.101562 191.039062 L 182.398438 191.039062 L 182.398438 210.238281 L 285.300781 210.238281 L 280.5 229.4375 L 172.117188 229.4375 C 172.011719 228.699219 171.832031 227.988281 171.695312 227.261719 C 171.535156 226.300781 171.378906 225.4375 171.179688 224.535156 C 170.910156 223.316406 170.582031 222.125 170.21875 220.925781 C 169.988281 220.078125 169.769531 219.226562 169.5 218.398438 C 169.097656 217.152344 168.625 215.941406 168.15625 214.730469 C 167.855469 213.984375 167.597656 213.234375 167.289062 212.503906 C 166.695312 211.132812 166.023438 209.796875 165.371094 208.472656 C 165.101562 207.945312 164.871094 207.398438 164.582031 206.878906 C 163.597656 205.070312 162.527344 203.304688 161.367188 201.589844 C 161.109375 201.207031 160.808594 200.859375 160.550781 200.476562 C 159.589844 199.160156 158.632812 197.863281 157.671875 196.636719 C 157.199219 196.058594 156.710938 195.523438 156.203125 194.957031 C 155.328125 193.996094 154.464844 192.96875 153.542969 192.074219 C 152.957031 191.480469 152.34375 190.921875 151.730469 190.359375 C 150.835938 189.511719 149.945312 188.667969 149.003906 187.871094 C 148.339844 187.304688 147.648438 186.777344 146.957031 186.238281 C 145.996094 185.5 145.035156 184.78125 144.078125 184.089844 C 143.347656 183.578125 142.609375 183.128906 141.851562 182.609375 C 140.890625 181.96875 139.84375 181.34375 138.804688 180.757812 C 138.027344 180.308594 137.242188 179.882812 136.445312 179.460938 C 135.378906 178.914062 134.304688 178.394531 133.210938 177.90625 C 132.394531 177.53125 131.578125 177.167969 130.753906 176.832031 C 129.621094 176.371094 128.457031 175.96875 127.296875 175.5625 C 126.460938 175.277344 125.636719 174.976562 124.78125 174.730469 C 123.550781 174.363281 122.304688 174.066406 121.054688 173.769531 C 120.230469 173.578125 119.425781 173.355469 118.589844 173.191406 C 117.1875 172.914062 115.757812 172.722656 114.316406 172.539062 C 113.605469 172.445312 112.90625 172.308594 112.1875 172.242188 C 110.015625 171.964844 107.816406 171.839844 105.601562 171.839844 C 103.382812 171.839844 101.183594 171.964844 99.023438 172.175781 C 98.304688 172.242188 97.601562 172.378906 96.894531 172.472656 C 95.453125 172.65625 94.011719 172.847656 92.621094 173.125 C 91.785156 173.289062 90.980469 173.511719 90.152344 173.703125 C 88.90625 174 87.65625 174.296875 86.429688 174.664062 C 85.574219 174.914062 84.746094 175.210938 83.914062 175.496094 C 82.75 175.902344 81.589844 176.304688 80.457031 176.765625 C 79.628906 177.101562 78.816406 177.464844 78 177.839844 C 76.90625 178.328125 75.832031 178.800781 74.765625 179.394531 C 73.96875 179.816406 73.179688 180.238281 72.402344 180.691406 C 71.367188 181.277344 70.359375 181.902344 69.359375 182.542969 C 68.601562 183.023438 67.863281 183.503906 67.132812 184.023438 C 66.171875 184.714844 65.210938 185.433594 64.253906 186.171875 C 63.5625 186.710938 62.871094 187.238281 62.207031 187.804688 C 61.246094 188.601562 60.375 189.445312 59.480469 190.289062 C 59.203125 190.539062 58.914062 190.78125 58.65625 191.039062 L 19.199219 191.039062 Z M 19.199219 210.238281 L 44.957031 210.238281 C 44.59375 210.996094 44.21875 211.734375 43.882812 212.503906 C 43.546875 213.269531 43.316406 213.980469 43.019531 214.730469 C 42.546875 215.941406 42.058594 217.148438 41.675781 218.398438 C 41.40625 219.222656 41.183594 220.078125 40.953125 220.921875 C 40.617188 222.121094 40.292969 223.3125 39.992188 224.53125 C 39.792969 225.433594 39.640625 226.335938 39.476562 227.257812 C 39.339844 227.988281 39.160156 228.699219 39.054688 229.4375 L 19.199219 229.4375 Z M 19.199219 210.238281 " style=" stroke:none;fill-rule:nonzero;fill:rgb(0%,0%,0%);fill-opacity:1;" />
<path d="M 230.398438 123.835938 L 278.398438 123.835938 L 278.398438 143.039062 L 230.398438 143.039062 Z M 230.398438 123.835938 " style=" stroke:none;fill-rule:nonzero;fill:rgb(0%,0%,0%);fill-opacity:1;" />
<path d="M 384 123.835938 L 441.601562 123.835938 L 441.601562 143.039062 L 384 143.039062 Z M 384 123.835938 " style=" stroke:none;fill-rule:nonzero;fill:rgb(0%,0%,0%);fill-opacity:1;" />
</g>
</svg>